0
SECTION
2
HEADER
9
$INSUNITS
70
4
9
$ACADVER
1
AC1014
9
$HANDSEED
5
FFFF
0
ENDSEC
0
SECTION
2
TABLES
0
TABLE
2
VPORT
5
8
100
AcDbSymbolTable
0
ENDTAB
0
TABLE
2
LTYPE
5
5
100
AcDbSymbolTable
0
LTYPE
5
14
100
AcDbSymbolTableRecord
100
AcDbLinetypeTableRecord
2
BYBLOCK
70
0
0
LTYPE
5
15
100
AcDbSymbolTableRecord
100
AcDbLinetypeTableRecord
2
BYLAYER
70
0
0
ENDTAB
0
TABLE
2
LAYER
5
2
100
AcDbSymbolTable
70
2
0
LAYER
5
50
100
AcDbSymbolTableRecord
100
AcDbLayerTableRecord
2
0
70
0
6
CONTINUOUS
0
ENDTAB
0
TABLE
2
STYLE
5
3
100
AcDbSymbolTable
70
1
0
STYLE
5
11
100
AcDbSymbolTableRecord
100
AcDbTextStyleTableRecord
2
STANDARD
70
0
0
ENDTAB
0
TABLE
2
VIEW
5
6
100
AcDbSymbolTable
70
0
0
ENDTAB
0
TABLE
2
UCS
5
7
100
AcDbSymbolTable
70
0
0
ENDTAB
0
TABLE
2
APPID
5
9
100
AcDbSymbolTable
70
2
0
APPID
5
12
100
AcDbSymbolTableRecord
100
AcDbRegAppTableRecord
2
ACAD
70
0
0
ENDTAB
0
TABLE
2
DIMSTYLE
5
A
100
AcDbSymbolTable
70
1
0
ENDTAB
0
TABLE
2
BLOCK_RECORD
5
1
100
AcDbSymbolTable
70
1
0
BLOCK_RECORD
5
1F
100
AcDbSymbolTableRecord
100
AcDbBlockTableRecord
2
*MODEL_SPACE
0
BLOCK_RECORD
5
1B
100
AcDbSymbolTableRecord
100
AcDbBlockTableRecord
2
*PAPER_SPACE
0
ENDTAB
0
ENDSEC
0
SECTION
2
BLOCKS
0
BLOCK
5
20
100
AcDbEntity
100
AcDbBlockBegin
2
*MODEL_SPACE
0
ENDBLK
5
21
100
AcDbEntity
100
AcDbBlockEnd
0
BLOCK
5
1C
100
AcDbEntity
100
AcDbBlockBegin
2
*PAPER_SPACE
0
ENDBLK
5
1D
100
AcDbEntity
100
AcDbBlockEnd
0
ENDSEC
0
SECTION
2
ENTITIES
0
LWPOLYLINE
5
100
100
AcDbEntity
8
0
100
AcDbPolyline
90
21
70
1
43
0.0
10
-227.04287587603008
20
144.05773297996677
10
-255.66787587603014
20
144.05773297996689
10
-255.66787587603019
20
152.05773297996677
10
-284.29287587603022
20
152.05773297996677
10
-284.29287587602994
20
144.05773297996691
10
-312.91787587603005
20
144.05773297996703
10
-312.91787587603045
20
152.05773297996677
10
-341.54287587603051
20
152.05773297996677
10
-341.54287587603028
20
180.68273297996683
10
-349.54287587602983
20
180.68273297996669
10
-349.54287587603
20
209.30773297996672
10
-341.54287587603022
20
209.30773297996677
10
-341.54287587603005
20
237.9327329799668
10
-349.54277929456657
20
237.93273297996683
10
-349.54277929456623
20
266.55773297996683
10
-341.54287587603
20
266.51842275116257
10
-341.54287587603
20
281.51842275116257
10
-220.04287587603
20
281.51842275116257
42
-0.41421356237308982
10
-212.04287587603
20
273.51842275116257
10
-212.04287587603
20
152.0577329799678
10
-227.04287587603
20
152.05773297996677
0
CIRCLE
5
101
100
AcDbEntity
8
0
100
AcDbCircle
10
-319.54287587603039
20
266.48807786582768
30
0
40
6.75
210
0
220
0
230
1
0
CIRCLE
5
102
100
AcDbEntity
8
0
100
AcDbCircle
10
-319.54287587603034
20
174.05773297996714
30
0
40
6.75
210
0
220
0
230
1
0
LWPOLYLINE
5
103
100
AcDbEntity
8
0
100
AcDbPolyline
90
8
70
1
43
0.0
10
-233.32770343309988
20
185.27290542289708
10
-233.32770343309988
20
255.27290542289708
42
0.41421356237309298
10
-238.32770343309988
20
260.27290542289705
10
-308.32770343309988
20
260.27290542289711
42
0.41421356237309298
10
-313.32770343309994
20
255.27290542289708
10
-313.32770343309994
20
185.27290542289708
42
0.41421356237309298
10
-308.32770343309988
20
180.27290542289708
10
-238.32770343309988
20
180.27290542289711
42
0.41421356237309298
0
CIRCLE
5
104
100
AcDbEntity
8
0
100
AcDbCircle
10
-227.11253099016929
20
266.48807786582762
30
0
40
6.75
210
0
220
0
230
1
0
CIRCLE
5
105
100
AcDbEntity
8
0
100
AcDbCircle
10
-227.11253099016994
20
174.05773297996663
30
0
40
6.75
210
0
220
0
230
1
0
LINE
5
106
100
AcDbEntity
8
0
100
AcDbLine
10
-349.54277929456623
20
266.55773297996683
30
0
11
-349.54277929456657
21
237.93273297996683
31
0
0
LINE
5
107
100
AcDbEntity
8
0
100
AcDbLine
10
-312.91787587603005
20
144.05773297996703
30
0
11
-284.29287587602994
21
144.05773297996691
31
0
0
LINE
5
108
100
AcDbEntity
8
0
100
AcDbLine
10
-255.66787587603014
20
144.05773297996689
30
0
11
-227.04287587603008
21
144.05773297996677
31
0
0
ENDSEC
0
SECTION
2
OBJECTS
0
DICTIONARY
5
C
100
AcDbDictionary
3
ACAD_GROUP
350
D
3
ACAD_MLINESTYLE
350
17
0
DICTIONARY
5
D
100
AcDbDictionary
0
DICTIONARY
5
1A
330
C
100
AcDbDictionary
0
DICTIONARY
5
17
100
AcDbDictionary
0
ENDSEC
0
EOF
