0
SECTION
2
HEADER
9
$INSUNITS
70
4
9
$ACADVER
1
AC1014
9
$HANDSEED
5
FFFF
0
ENDSEC
0
SECTION
2
TABLES
0
TABLE
2
VPORT
5
8
100
AcDbSymbolTable
0
ENDTAB
0
TABLE
2
LTYPE
5
5
100
AcDbSymbolTable
0
LTYPE
5
14
100
AcDbSymbolTableRecord
100
AcDbLinetypeTableRecord
2
BYBLOCK
70
0
0
LTYPE
5
15
100
AcDbSymbolTableRecord
100
AcDbLinetypeTableRecord
2
BYLAYER
70
0
0
ENDTAB
0
TABLE
2
LAYER
5
2
100
AcDbSymbolTable
70
2
0
LAYER
5
50
100
AcDbSymbolTableRecord
100
AcDbLayerTableRecord
2
0
70
0
6
CONTINUOUS
0
ENDTAB
0
TABLE
2
STYLE
5
3
100
AcDbSymbolTable
70
1
0
STYLE
5
11
100
AcDbSymbolTableRecord
100
AcDbTextStyleTableRecord
2
STANDARD
70
0
0
ENDTAB
0
TABLE
2
VIEW
5
6
100
AcDbSymbolTable
70
0
0
ENDTAB
0
TABLE
2
UCS
5
7
100
AcDbSymbolTable
70
0
0
ENDTAB
0
TABLE
2
APPID
5
9
100
AcDbSymbolTable
70
2
0
APPID
5
12
100
AcDbSymbolTableRecord
100
AcDbRegAppTableRecord
2
ACAD
70
0
0
ENDTAB
0
TABLE
2
DIMSTYLE
5
A
100
AcDbSymbolTable
70
1
0
ENDTAB
0
TABLE
2
BLOCK_RECORD
5
1
100
AcDbSymbolTable
70
1
0
BLOCK_RECORD
5
1F
100
AcDbSymbolTableRecord
100
AcDbBlockTableRecord
2
*MODEL_SPACE
0
BLOCK_RECORD
5
1B
100
AcDbSymbolTableRecord
100
AcDbBlockTableRecord
2
*PAPER_SPACE
0
ENDTAB
0
ENDSEC
0
SECTION
2
BLOCKS
0
BLOCK
5
20
100
AcDbEntity
100
AcDbBlockBegin
2
*MODEL_SPACE
0
ENDBLK
5
21
100
AcDbEntity
100
AcDbBlockEnd
0
BLOCK
5
1C
100
AcDbEntity
100
AcDbBlockBegin
2
*PAPER_SPACE
0
ENDBLK
5
1D
100
AcDbEntity
100
AcDbBlockEnd
0
ENDSEC
0
SECTION
2
ENTITIES
0
LWPOLYLINE
5
100
100
AcDbEntity
8
0
100
AcDbPolyline
90
21
70
1
43
0.0
10
-145.87928013953393
20
274.97600213270812
10
-145.87928013954649
20
282.96742003891785
10
-115.25428013952991
20
282.96742003891796
10
-115.25428013952988
20
274.97600213270823
10
-84.629280139513284
20
274.9760021327084
10
-84.629280139513057
20
282.96742003891814
10
-54.004280139496466
20
282.96742003891825
10
-54.004280139502256
20
274.97600213270852
10
-39.004280139502256
20
274.97600213270852
10
-39.004280139502256
20
153.46742003888033
42
-0.4142135623730947
10
-47.004280139502264
20
145.46742003888031
10
-176.50774990429233
20
145.46742003888031
10
-176.50774990429233
20
160.46742003888033
10
-168.51633199808262
20
160.46742003888022
10
-168.51633199808197
20
189.15343227781577
10
-176.50081037453526
20
189.15343227781602
10
-176.50081037454027
20
217.83944451675157
10
-168.51286223320881
20
217.60397765477623
10
-168.51286223323697
20
246.28998989371172
10
-176.50428013941789
20
246.28998989370228
10
-176.50428013955053
20
274.97600213263786
0
LINE
5
101
100
AcDbEntity
8
0
100
AcDbLine
10
-176.50428013955053
20
274.97600213263786
30
0
11
-176.50428013941789
21
246.28998989370228
31
0
0
LINE
5
102
100
AcDbEntity
8
0
100
AcDbLine
10
-176.50081037453526
20
189.15343227781602
30
0
11
-176.50081037454027
21
217.83944451675157
31
0
0
CIRCLE
5
103
100
AcDbEntity
8
0
100
AcDbCircle
10
-146.50428013950227
20
252.96742003888031
30
0
40
6.75
210
0
220
0
230
1
0
CIRCLE
5
104
100
AcDbEntity
8
0
100
AcDbCircle
10
-146.50428013950221
20
160.53707515301977
30
0
40
6.75
210
0
220
0
230
1
0
LWPOLYLINE
5
105
100
AcDbEntity
8
0
100
AcDbPolyline
90
8
70
1
43
0.0
10
-60.289107696571762
20
171.75224759594971
10
-60.289107696571762
20
241.75224759594971
42
0.41421356237309298
10
-65.289107696571762
20
246.75224759594968
10
-135.28910769657176
20
246.75224759594971
42
0.41421356237308982
10
-140.28910769657176
20
241.75224759594977
10
-140.28910769657179
20
171.75224759594968
42
0.41421356237308982
10
-135.28910769657176
20
166.75224759594971
10
-65.289107696571762
20
166.75224759594977
42
0.41421356237309298
0
CIRCLE
5
106
100
AcDbEntity
8
0
100
AcDbCircle
10
-54.073935253641139
20
252.96742003888025
30
0
40
6.75
210
0
220
0
230
1
0
CIRCLE
5
107
100
AcDbEntity
8
0
100
AcDbCircle
10
-54.073935253641778
20
160.53707515301926
30
0
40
6.75
210
0
220
0
230
1
0
LINE
5
108
100
AcDbEntity
8
0
100
AcDbLine
10
-176.50081037453526
20
189.15343227781602
30
0
11
-176.50081037454027
21
217.83944451675157
31
0
0
LINE
5
109
100
AcDbEntity
8
0
100
AcDbLine
10
-176.50428013941789
20
246.28998989370228
30
0
11
-176.50428013955053
21
274.97600213263786
31
0
0
LINE
5
110
100
AcDbEntity
8
0
100
AcDbLine
10
-145.87928013954649
20
282.96742003891785
30
0
11
-115.25428013952991
21
282.96742003891796
31
0
0
LINE
5
111
100
AcDbEntity
8
0
100
AcDbLine
10
-84.629280139513057
20
282.96742003891814
30
0
11
-54.004280139496466
21
282.96742003891825
31
0
0
ENDSEC
0
SECTION
2
OBJECTS
0
DICTIONARY
5
C
100
AcDbDictionary
3
ACAD_GROUP
350
D
3
ACAD_MLINESTYLE
350
17
0
DICTIONARY
5
D
100
AcDbDictionary
0
DICTIONARY
5
1A
330
C
100
AcDbDictionary
0
DICTIONARY
5
17
100
AcDbDictionary
0
ENDSEC
0
EOF
