0
SECTION
2
HEADER
9
$INSUNITS
70
4
9
$ACADVER
1
AC1014
9
$HANDSEED
5
FFFF
0
ENDSEC
0
SECTION
2
TABLES
0
TABLE
2
VPORT
5
8
100
AcDbSymbolTable
0
ENDTAB
0
TABLE
2
LTYPE
5
5
100
AcDbSymbolTable
0
LTYPE
5
14
100
AcDbSymbolTableRecord
100
AcDbLinetypeTableRecord
2
BYBLOCK
70
0
0
LTYPE
5
15
100
AcDbSymbolTableRecord
100
AcDbLinetypeTableRecord
2
BYLAYER
70
0
0
ENDTAB
0
TABLE
2
LAYER
5
2
100
AcDbSymbolTable
70
2
0
LAYER
5
50
100
AcDbSymbolTableRecord
100
AcDbLayerTableRecord
2
0
70
0
6
CONTINUOUS
0
ENDTAB
0
TABLE
2
STYLE
5
3
100
AcDbSymbolTable
70
1
0
STYLE
5
11
100
AcDbSymbolTableRecord
100
AcDbTextStyleTableRecord
2
STANDARD
70
0
0
ENDTAB
0
TABLE
2
VIEW
5
6
100
AcDbSymbolTable
70
0
0
ENDTAB
0
TABLE
2
UCS
5
7
100
AcDbSymbolTable
70
0
0
ENDTAB
0
TABLE
2
APPID
5
9
100
AcDbSymbolTable
70
2
0
APPID
5
12
100
AcDbSymbolTableRecord
100
AcDbRegAppTableRecord
2
ACAD
70
0
0
ENDTAB
0
TABLE
2
DIMSTYLE
5
A
100
AcDbSymbolTable
70
1
0
ENDTAB
0
TABLE
2
BLOCK_RECORD
5
1
100
AcDbSymbolTable
70
1
0
BLOCK_RECORD
5
1F
100
AcDbSymbolTableRecord
100
AcDbBlockTableRecord
2
*MODEL_SPACE
0
BLOCK_RECORD
5
1B
100
AcDbSymbolTableRecord
100
AcDbBlockTableRecord
2
*PAPER_SPACE
0
ENDTAB
0
ENDSEC
0
SECTION
2
BLOCKS
0
BLOCK
5
20
100
AcDbEntity
100
AcDbBlockBegin
2
*MODEL_SPACE
0
ENDBLK
5
21
100
AcDbEntity
100
AcDbBlockEnd
0
BLOCK
5
1C
100
AcDbEntity
100
AcDbBlockBegin
2
*PAPER_SPACE
0
ENDBLK
5
1D
100
AcDbEntity
100
AcDbBlockEnd
0
ENDSEC
0
SECTION
2
ENTITIES
0
LWPOLYLINE
5
100
100
AcDbEntity
8
0
100
AcDbPolyline
90
22
70
1
43
0.0
10
-352.1738881336284
20
-3.7634951036610436
10
-344.17388813362413
20
-3.7634951036613939
10
-344.1691576885778
20
26.861607628337506
10
-352.16915767797718
20
26.861195726102491
10
-352.17073449652912
20
57.4862987828473
10
-344.17073450712974
20
57.486710685084432
10
-344.17231132568196
20
88.111813741829238
10
-352.1723113150822
20
88.111401839594151
10
-352.17388813363362
20
118.73650489633896
10
-344.17388814430302
20
118.73691679857396
10
-315.54913159280477
20
118.74040780681808
10
-315.54815593158878
20
110.74040786630889
10
-286.92339938009059
20
110.74389887454657
10
-286.92437504117225
20
118.74389881505236
10
-258.29961848967412
20
118.74738982331007
10
-258.29864282842095
20
110.74738988280362
10
-229.67388813363368
20
110.73650489633849
10
-229.67388813363362
20
118.73650489633896
10
-214.67388813363362
20
118.73650489633896
10
-214.67388813363362
20
-10.763495103661036
42
-0.41421356237309243
10
-222.67388813363365
20
-18.763495103661043
10
-352.17388813363362
20
-18.763495103661043
0
LINE
5
101
100
AcDbEntity
8
0
100
AcDbLine
10
-352.17388813363362
20
118.73650489633896
30
0
11
-352.1723113150822
21
88.111401839594151
31
0
0
CIRCLE
5
102
100
AcDbEntity
8
0
100
AcDbCircle
10
-322.17388813363362
20
88.736504896338957
30
0
40
6.75
210
0
220
0
230
1
0
CIRCLE
5
103
100
AcDbEntity
8
0
100
AcDbCircle
10
-322.17388813363357
20
-3.6938399895215923
30
0
40
6.75
210
0
220
0
230
1
0
LWPOLYLINE
5
104
100
AcDbEntity
8
0
100
AcDbPolyline
90
8
70
1
43
0.0
10
-235.95871569070314
20
7.5213324534083625
10
-235.95871569070314
20
77.521332453408363
42
0.41421356237309137
10
-240.95871569070314
20
82.521332453408363
10
-310.95871569070317
20
82.521332453408363
42
0.41421356237309137
10
-315.95871569070317
20
77.521332453408363
10
-315.95871569070317
20
7.5213324534083634
42
0.41421356237309442
10
-310.95871569070317
20
2.5213324534083625
10
-240.95871569070314
20
2.5213324534083394
42
0.41421356237309231
0
CIRCLE
5
105
100
AcDbEntity
8
0
100
AcDbCircle
10
-229.74354324777252
20
88.736504896338886
30
0
40
6.75
210
0
220
0
230
1
0
CIRCLE
5
106
100
AcDbEntity
8
0
100
AcDbCircle
10
-229.74354324777318
20
-3.6938399895220897
30
0
40
6.75
210
0
220
0
230
1
0
LINE
5
107
100
AcDbEntity
8
0
100
AcDbLine
10
-352.1723113150822
20
88.111401839594151
30
0
11
-352.17388813363362
21
118.73650489633896
31
0
0
ENDSEC
0
SECTION
2
OBJECTS
0
DICTIONARY
5
C
100
AcDbDictionary
3
ACAD_GROUP
350
D
3
ACAD_MLINESTYLE
350
17
0
DICTIONARY
5
D
100
AcDbDictionary
0
DICTIONARY
5
1A
330
C
100
AcDbDictionary
0
DICTIONARY
5
17
100
AcDbDictionary
0
ENDSEC
0
EOF
